<svg width="40" height="40" viewBox="0 0 40 40" fill="none" xmlns="http://www.w3.org/2000/svg">
<circle cx="20" cy="20" r="19.5" stroke="#F4F4F4"/>
<g clip-path="url(#clip0_223_106)">
<path d="M27.8385 28.3563V19.2188V18.1769L27.0052 18.8021L20.5 23.6822L13.9948 18.8021L13.1615 18.1769V19.2188V28.3573H9.70417C9.54871 28.3573 9.39477 28.3267 9.25116 28.2672C9.10754 28.2076 8.97706 28.1204 8.86717 28.0105C8.75728 27.9005 8.67013 27.77 8.6107 27.6263C8.55128 27.4827 8.52074 27.3287 8.52083 27.1732V27.1729V12.6844C8.52083 11.006 10.4362 10.0484 11.778 11.0551C11.778 11.0551 11.778 11.0551 11.778 11.0552L13.3696 12.2499L13.3698 12.25L20.1875 17.3625L20.5001 17.5969L20.8126 17.3625L27.63 12.2481L27.6303 12.2479L29.2217 11.0554L29.2219 11.0552C30.563 10.0492 32.4792 11.0063 32.4792 12.6844V27.1729C32.4792 27.8269 31.9499 28.3563 31.2958 28.3563H27.8385Z" stroke="#F4F4F4" stroke-width="1.04167"/>
</g>
<defs>
<clipPath id="clip0_223_106">
<rect width="25" height="25" fill="white" transform="translate(8 7)"/>
</clipPath>
</defs>
</svg>
