<svg width="40" height="40" viewBox="0 0 40 40" fill="none" xmlns="http://www.w3.org/2000/svg">
<circle cx="20" cy="20" r="19.5" fill="#F4F4F4" stroke="#F4F4F4"/>
<g clip-path="url(#clip0_223_101)">
<path d="M12.6838 29.9065V20.1692L9.68901 17.4066L7.00354 15.8735V28.1881C7.00354 29.1389 7.76748 29.9065 8.70765 29.9065H12.6838Z" fill="#4285F4"/>
<path d="M26.3162 29.9065H30.2923C31.2353 29.9065 31.9965 29.136 31.9965 28.1881V15.8735L28.9547 17.6295L26.3162 20.1692V29.9065Z" fill="#34A853"/>
<path d="M12.6837 20.1692L12.2762 16.3646L12.6837 12.7232L19.5 17.8782L26.3162 12.7232L26.772 16.168L26.3162 20.1692L19.5 25.3242L12.6837 20.1692Z" fill="#EA4335"/>
<path d="M26.3162 12.7232V20.1692L31.9965 15.8734V13.5823C31.9965 11.4573 29.5909 10.246 27.9068 11.5204L26.3162 12.7232Z" fill="#FBBC04"/>
<path d="M7.00354 15.8735L9.61599 17.8493L12.6838 20.1692V12.7232L11.0932 11.5204C9.40618 10.2459 7.00354 11.4574 7.00354 13.5822V15.8735Z" fill="#C5221F"/>
</g>
<defs>
<clipPath id="clip0_223_101">
<rect width="25" height="19" fill="white" transform="translate(7 11)"/>
</clipPath>
</defs>
</svg>
