<svg width="40" height="40" viewBox="0 0 40 40" fill="none" xmlns="http://www.w3.org/2000/svg">
<circle cx="20" cy="20" r="19.5" fill="#F4F4F4" stroke="#F4F4F4"/>
<g clip-path="url(#clip0_223_145)">
<path d="M27.1406 7H13.8594C10.6233 7 8 9.62333 8 12.8594V26.1406C8 29.3767 10.6233 32 13.8594 32H27.1406C30.3767 32 33 29.3767 33 26.1406V12.8594C33 9.62333 30.3767 7 27.1406 7Z" fill="url(#paint0_radial_223_145)"/>
<path d="M27.1406 7H13.8594C10.6233 7 8 9.62333 8 12.8594V26.1406C8 29.3767 10.6233 32 13.8594 32H27.1406C30.3767 32 33 29.3767 33 26.1406V12.8594C33 9.62333 30.3767 7 27.1406 7Z" fill="url(#paint1_radial_223_145)"/>
<path d="M20.5009 9.73438C17.8487 9.73438 17.5158 9.746 16.4742 9.79336C15.4346 9.84102 14.7249 10.0056 14.104 10.2471C13.4616 10.4965 12.9168 10.8302 12.374 11.3731C11.8308 11.916 11.4971 12.4608 11.2469 13.1029C11.0047 13.724 10.8399 14.434 10.7932 15.4731C10.7466 16.5148 10.7344 16.8479 10.7344 19.5001C10.7344 22.1523 10.7461 22.4842 10.7934 23.5258C10.8412 24.5654 11.0058 25.2751 11.2471 25.896C11.4967 26.5384 11.8304 27.0832 12.3733 27.626C12.916 28.1692 13.4608 28.5037 14.1027 28.7531C14.7241 28.9946 15.4339 29.1592 16.4733 29.2068C17.515 29.2542 17.8477 29.2658 20.4997 29.2658C23.1521 29.2658 23.484 29.2542 24.5256 29.2068C25.5652 29.1592 26.2757 28.9946 26.8971 28.7531C27.5392 28.5037 28.0832 28.1692 28.6258 27.626C29.169 27.0832 29.5026 26.5384 29.7529 25.8963C29.993 25.2751 30.1578 24.5652 30.2066 23.526C30.2534 22.4844 30.2656 22.1523 30.2656 19.5001C30.2656 16.8479 30.2534 16.515 30.2066 15.4733C30.1578 14.4337 29.993 13.7241 29.7529 13.1032C29.5026 12.4608 29.169 11.916 28.6258 11.3731C28.0826 10.83 27.5394 10.4963 26.8965 10.2472C26.2739 10.0056 25.5639 9.84092 24.5242 9.79336C23.4825 9.746 23.1509 9.73438 20.4979 9.73438H20.5009ZM19.6248 11.4942C19.8849 11.4938 20.175 11.4942 20.5009 11.4942C23.1084 11.4942 23.4174 11.5036 24.4471 11.5504C25.3992 11.5939 25.916 11.753 26.2603 11.8867C26.716 12.0637 27.0409 12.2753 27.3825 12.6172C27.7243 12.959 27.9358 13.2845 28.1133 13.7402C28.247 14.084 28.4062 14.6008 28.4496 15.5529C28.4964 16.5824 28.5065 16.8916 28.5065 19.4979C28.5065 22.1041 28.4964 22.4134 28.4496 23.4428C28.4061 24.3949 28.247 24.9117 28.1133 25.2556C27.9363 25.7113 27.7243 26.0358 27.3825 26.3774C27.0407 26.7192 26.7162 26.9308 26.2603 27.1078C25.9164 27.2421 25.3992 27.4008 24.4471 27.4443C23.4176 27.4911 23.1084 27.5013 20.5009 27.5013C17.8933 27.5013 17.5842 27.4911 16.5548 27.4443C15.6026 27.4004 15.0858 27.2413 14.7413 27.1076C14.2856 26.9306 13.9601 26.719 13.6183 26.3772C13.2765 26.0354 13.0649 25.7107 12.8875 25.2548C12.7538 24.9109 12.5945 24.3941 12.5512 23.442C12.5044 22.4125 12.495 22.1033 12.495 19.4954C12.495 16.8876 12.5044 16.58 12.5512 15.5505C12.5947 14.5983 12.7538 14.0815 12.8875 13.7373C13.0646 13.2815 13.2765 12.9561 13.6184 12.6143C13.9602 12.2725 14.2856 12.0608 14.7414 11.8835C15.0856 11.7492 15.6026 11.5905 16.5548 11.5468C17.4557 11.5061 17.8048 11.4938 19.6248 11.4918V11.4942ZM25.7138 13.1157C25.0668 13.1157 24.5419 13.6401 24.5419 14.2872C24.5419 14.9342 25.0668 15.4591 25.7138 15.4591C26.3607 15.4591 26.8856 14.9342 26.8856 14.2872C26.8856 13.6402 26.3607 13.1153 25.7138 13.1153V13.1157ZM20.5009 14.485C17.7313 14.485 15.4858 16.7305 15.4858 19.5001C15.4858 22.2697 17.7313 24.5142 20.5009 24.5142C23.2705 24.5142 25.5152 22.2697 25.5152 19.5001C25.5152 16.7306 23.2703 14.485 20.5007 14.485H20.5009ZM20.5009 16.2448C22.2986 16.2448 23.7562 17.7021 23.7562 19.5001C23.7562 21.2979 22.2986 22.7554 20.5009 22.7554C18.703 22.7554 17.2457 21.2979 17.2457 19.5001C17.2457 17.7021 18.703 16.2448 20.5009 16.2448Z" fill="white"/>
</g>
<defs>
<radialGradient id="paint0_radial_223_145" cx="0" cy="0" r="1" gradientUnits="userSpaceOnUse" gradientTransform="translate(14.6406 33.9255) rotate(-90) scale(24.7769 23.0444)">
<stop stop-color="#FFDD55"/>
<stop offset="0.1" stop-color="#FFDD55"/>
<stop offset="0.5" stop-color="#FF543E"/>
<stop offset="1" stop-color="#C837AB"/>
</radialGradient>
<radialGradient id="paint1_radial_223_145" cx="0" cy="0" r="1" gradientUnits="userSpaceOnUse" gradientTransform="translate(3.8124 8.80088) rotate(78.681) scale(11.0754 45.6531)">
<stop stop-color="#3771C8"/>
<stop offset="0.128" stop-color="#3771C8"/>
<stop offset="1" stop-color="#6600FF" stop-opacity="0"/>
</radialGradient>
<clipPath id="clip0_223_145">
<rect width="25" height="25" fill="white" transform="translate(8 7)"/>
</clipPath>
</defs>
</svg>
