<svg width="40" height="40" viewBox="0 0 40 40" fill="none" xmlns="http://www.w3.org/2000/svg">
<g clip-path="url(#clip0_223_127)">
<path d="M6.21305 6.21125L6.21293 6.21136C2.55596 9.86846 0.501039 14.8282 0.5 20L6.21305 6.21125ZM6.21305 6.21125C9.86607 2.55579 14.8294 0.5 20 0.5C25.1706 0.5 30.1339 2.55579 33.787 6.21125L33.7871 6.2114C37.4433 9.86703 39.5 14.8305 39.5 20C39.5 25.1695 37.4433 30.133 33.7871 33.7886L33.787 33.7887C30.1339 37.4442 25.1706 39.5 20 39.5C14.8294 39.5 9.86607 37.4442 6.21305 33.7887L6.2129 33.7886M6.21305 6.21125L6.2129 33.7886M6.2129 33.7886C2.55668 30.133 0.500026 25.1696 0.5 20.0001L6.2129 33.7886Z" stroke="#F4F4F4"/>
<path d="M9.05315 19.7888C14.8844 17.2488 18.7719 15.5741 20.7157 14.765C26.2719 12.4547 27.425 12.0534 28.1782 12.0399C28.3438 12.0372 28.7125 12.0781 28.9532 12.2727C29.1532 12.4367 29.2094 12.6586 29.2375 12.8144C29.2625 12.97 29.2969 13.3247 29.2688 13.6016C28.9688 16.7641 27.6657 24.4384 27.0032 27.9806C26.725 29.4794 26.1719 29.9819 25.6375 30.0309C24.475 30.1378 23.5938 29.2634 22.4688 28.5263C20.7094 27.3722 19.7157 26.6541 18.0063 25.5281C16.0313 24.2269 17.3125 23.5116 18.4375 22.3428C18.7313 22.0369 23.85 17.3822 23.9469 16.96C23.9594 16.9072 23.9719 16.7103 23.8532 16.6066C23.7375 16.5025 23.5657 16.5381 23.4407 16.5663C23.2625 16.6063 20.4532 18.465 15.0032 22.1422C14.2063 22.6903 13.4844 22.9575 12.8344 22.9434C12.1219 22.9281 10.7469 22.5397 9.72503 22.2078C8.47503 21.8006 7.47815 21.5853 7.56565 20.8938C7.6094 20.5338 8.10628 20.1653 9.05315 19.7888Z" fill="white"/>
</g>
<defs>
<clipPath id="clip0_223_127">
<rect width="40" height="40" fill="white"/>
</clipPath>
</defs>
</svg>
