<svg width="85" height="85" viewBox="0 0 85 85" fill="none" xmlns="http://www.w3.org/2000/svg">
<g clip-path="url(#clip0_98_17)">
<path d="M0 17.9487H19.8691V23.8441H0V17.9487ZM0 7H19.8691V12.8953H0V7ZM35.6481 28.8131H0V34.7084H34.3122C38.0689 34.7084 46.8346 34.7925 50.0906 40.0984V36.814C48.5044 31.5921 43.8298 28.8131 35.6481 28.8131ZM35.7311 39.7615H0V45.6568H34.3122C42.6606 45.6568 47.9201 45.9937 50.0906 47.1729V44.562C48.4208 40.4353 41.408 39.7615 35.7311 39.7615ZM35.6481 67.554H0V61.6586H34.3122C38.0689 61.6586 46.8346 61.5745 50.0906 56.2686V59.5531C48.5044 64.7749 43.8298 67.554 35.6481 67.554ZM35.7311 56.6055H0V50.7102H34.3122C42.6606 50.7102 47.9201 50.3733 50.0906 49.1941V51.805C48.4208 55.9317 41.408 56.6055 35.7311 56.6055ZM58.7729 77.7448H84.9872V74.1231H59.5242C57.2701 74.1231 51.9275 74.0391 50.0073 70.9228V72.9443C50.9256 76.0602 53.764 77.7448 58.7729 77.7448ZM58.6896 71.0912H84.9038V67.4699H59.5242C54.4316 67.4699 51.2592 67.3014 50.007 66.5435V68.1437C51.0086 70.6702 55.2666 71.0912 58.6896 71.0912Z" fill="#F4F4F4"/>
</g>
<defs>
<clipPath id="clip0_98_17">
<rect width="85" height="71" fill="white" transform="translate(0 7)"/>
</clipPath>
</defs>
</svg>
