<svg width="85" height="85" viewBox="0 0 85 85" fill="none" xmlns="http://www.w3.org/2000/svg">
<g clip-path="url(#clip0_80_182)">
<path d="M0 0H85V85H0V0Z" fill="#F7DF1E"/>
<path d="M22.3497 71.0321L28.8542 67.0955C30.1093 69.3205 31.2508 71.2031 33.9891 71.2031C36.6138 71.2031 38.2689 70.1764 38.2689 66.1828V39.0233H46.2566V66.2957C46.2566 74.5689 41.407 78.3348 34.3314 78.3348C27.9414 78.3348 24.2323 75.0254 22.3494 71.0314M50.5953 70.1761L57.0991 66.4105C58.8114 69.2066 61.0367 71.2605 64.9732 71.2605C68.2832 71.2605 70.3936 69.6057 70.3936 67.3233C70.3936 64.5847 68.2255 63.6145 64.5738 62.0174L62.5773 61.1608C56.8142 58.7081 52.9915 55.6268 52.9915 49.1223C52.9915 43.1312 57.556 38.5664 64.6883 38.5664C69.7664 38.5664 73.4181 40.3355 76.0425 44.957L69.8229 48.9513C68.4532 46.498 66.9704 45.5281 64.688 45.5281C62.3485 45.5281 60.865 47.0116 60.865 48.9513C60.865 51.3476 62.3485 52.3181 65.7717 53.8017L67.7686 54.6573C74.5586 57.5676 78.3813 60.5343 78.3813 67.2094C78.3813 74.3992 72.7328 78.3358 65.1442 78.3358C57.727 78.3358 52.9341 74.7983 50.5949 70.1764" fill="black"/>
</g>
<defs>
<clipPath id="clip0_80_182">
<rect width="85" height="85" rx="15" fill="white"/>
</clipPath>
</defs>
</svg>
