<svg width="85" height="85" viewBox="0 0 85 85" fill="none" xmlns="http://www.w3.org/2000/svg">
<path d="M27.3162 2.53317C25.5569 2.53317 23.9847 2.92716 22.6432 3.70352C21.3532 4.45019 20.2692 5.56263 19.4207 7.01042C18.6257 8.36703 18.04 10.0181 17.6789 11.9173C16.9838 15.5781 17.1344 20.161 18.1149 25.168C18.2385 25.7982 18.3748 26.4362 18.5211 27.0704C17.7388 27.3081 16.979 27.553 16.2569 27.8047C11.5304 29.4525 7.57761 31.6058 4.8264 34.0324C3.39966 35.2892 2.29632 36.6176 1.54134 37.9806C0.739157 39.4299 0.332153 40.9165 0.332153 42.3992C0.332153 45.3716 1.97883 48.3836 5.09388 51.1157C8.02665 53.689 12.1741 55.9357 17.0849 57.6153C17.541 57.7703 18.0051 57.9209 18.4719 58.0647C18.3087 58.7753 18.1577 59.4915 18.0218 60.2049C17.088 65.1224 16.979 69.6226 17.7047 73.2178C18.0816 75.0805 18.68 76.701 19.4837 78.0358C20.3382 79.4546 21.4229 80.5501 22.7073 81.2908C24.0608 82.0712 25.6537 82.4667 27.4414 82.4667C29.8756 82.4667 32.5972 81.745 35.5304 80.3214C38.406 78.9259 41.3417 76.9274 44.2548 74.381C44.7039 73.9886 45.1664 73.5689 45.6285 73.1314H46.3184V73.13H67.2271C70.2767 73.13 72.9071 72.685 75.1181 71.7949C77.334 70.9064 79.1368 69.707 80.556 68.201C81.9753 66.6949 83.0101 64.8985 83.6735 62.811C84.3369 60.7411 84.6682 58.4991 84.6682 56.104C84.6695 51.928 83.9121 48.4719 82.4136 45.6995C80.9272 42.9662 78.7402 41.193 75.8529 40.3797C75.8306 40.3709 75.8117 40.3551 75.7989 40.3348C75.7862 40.3145 75.7802 40.2907 75.782 40.2667C75.7808 40.2458 75.7853 40.225 75.7948 40.2063C75.8043 40.1877 75.8186 40.1719 75.8362 40.1605C77.9858 38.9652 79.6381 37.263 80.7962 35.0916C81.9626 32.9015 82.546 30.2662 82.5463 27.1853C82.5463 22.1025 81.2602 18.3214 78.6996 15.8066C76.139 13.2915 72.7302 12.0415 68.4863 12.0415H45.6027C45.2464 11.7069 44.8828 11.3747 44.5196 11.0511C41.4948 8.36727 38.4784 6.26166 35.5521 4.79767C32.5515 3.29483 29.7803 2.53317 27.3162 2.53317ZM27.3412 8.50489C28.8658 8.50489 30.8382 9.10332 33.0445 10.2356C35.4359 11.4642 38.029 13.2917 40.5438 15.5246C40.6997 15.663 40.8591 15.8068 41.0221 15.9561C38.8103 18.4018 36.6306 21.1194 34.5352 24.045C30.9651 24.3938 27.5333 24.9146 24.3199 25.595C24.2038 25.0862 24.0948 24.5745 23.9949 24.0692L23.9854 24.0169C23.2193 20.1028 23.0327 16.5263 23.4456 13.6794C23.8023 11.2326 24.6005 9.48355 25.64 8.88158C26.0716 8.6315 26.644 8.50489 27.3412 8.50489ZM45.4754 19.8026V65.182L42.7848 61.8599L41.027 59.6901C40.1396 58.5947 38.7185 56.5675 37.0242 53.9831C35.6767 51.9285 34.6954 50.2787 34.2301 49.4797L34.1795 49.3921C33.3674 47.9919 32.7642 46.864 32.2799 45.9584C31.6735 44.8238 31.0755 43.665 30.5 42.5105L30.6055 42.3056L30.6121 42.2941C31.2462 41.0013 31.9136 39.7034 32.6004 38.4359L32.6064 38.4252L33.3352 37.0112L34.4116 35.2278L34.4183 35.2162C34.8202 34.5322 35.2371 33.8418 35.6576 33.1641L36.3983 31.9407C37.3844 30.3082 38.177 29.1177 39.4274 27.3925C40.1012 26.4639 40.74 25.6487 41.7522 24.3836L41.7549 24.381L41.8048 24.318L41.8243 24.293C42.2352 23.7691 42.6502 23.2527 43.0572 22.7581L43.0706 22.7414L43.0785 22.7315C43.8702 21.7512 44.674 20.769 45.4754 19.8026ZM53.8764 20.6946H67.3297C69.5867 20.6946 71.313 21.3288 72.5075 22.5792C73.702 23.8295 74.2989 26.0033 74.2989 29.0859C74.2989 31.8276 73.6355 33.9178 72.3074 35.3906C70.9793 36.8633 69.3203 37.5831 67.3284 37.5831H53.8752C53.8256 37.5831 53.7852 37.5311 53.7852 37.467L53.7859 20.8109C53.7859 20.7467 53.8261 20.6946 53.8764 20.6946ZM30.194 30.6104C29.7073 31.4074 29.2293 32.2119 28.7672 33.0137C28.3051 33.8155 27.851 34.6264 27.407 35.4424C26.8708 34.0672 26.3798 32.7026 25.9406 31.3678C27.3107 31.0853 28.7351 30.8316 30.194 30.6104ZM20.1281 32.8361C21.1399 35.9722 22.4062 39.2165 23.8936 42.4916C22.3837 45.8207 21.1007 49.1169 20.0746 52.2995C19.7179 52.1886 19.3656 52.0728 19.0184 51.9547C14.9363 50.5592 11.5365 48.758 9.18634 46.7458C7.38825 45.2062 6.315 43.582 6.315 42.401C6.315 41.1886 7.38865 39.6268 9.26124 38.1128C11.441 36.3504 14.543 34.7397 18.2254 33.4561C18.8512 33.2389 19.4888 33.0307 20.1281 32.8361ZM53.8758 45.2853H68.4533C70.9762 45.2853 72.9146 46.0736 74.3215 47.7167C75.7285 49.3599 76.4193 51.6728 76.4193 54.704C76.4199 57.7862 75.7154 60.1839 74.3224 61.8619C72.9408 63.5566 70.977 64.3984 68.4541 64.3984H53.8759C53.8264 64.3984 53.7859 64.3464 53.7859 64.2823V45.4016C53.7859 45.3374 53.8254 45.2853 53.8758 45.2853ZM27.4129 49.5319C27.8603 50.3523 28.3192 51.1687 28.7834 51.9704C29.2696 52.8101 29.7741 53.654 30.2873 54.4902C28.7631 54.2793 27.2903 54.0332 25.8914 53.7566C26.3452 52.375 26.8549 50.9598 27.4129 49.5319ZM24.2725 59.5273C27.443 60.1761 30.9144 60.6652 34.6066 60.9823C36.7222 63.9285 38.9201 66.6643 41.1479 69.1244C40.8728 69.3776 40.5954 69.6269 40.3195 69.869C37.0947 72.6881 33.856 74.726 30.9556 75.7627L30.8953 75.7841C29.5954 76.2431 28.4345 76.4757 27.4473 76.4757C26.7189 76.4757 26.1308 76.3497 25.6992 76.1008C24.6485 75.4948 23.831 73.7839 23.4561 71.4064C23.0177 68.6357 23.1711 65.1458 23.8987 61.314C24.0121 60.7195 24.1365 60.1218 24.2725 59.5273Z" fill="#41E0FF"/>
</svg>
