<svg width="89" height="85" viewBox="0 0 89 85" fill="none" xmlns="http://www.w3.org/2000/svg">
<g clip-path="url(#clip0_164_172)">
<path d="M61.6676 59.1269C64.9519 58.7863 67.4436 55.9494 67.3302 52.5448C67.2172 49.1406 64.3856 46.417 60.9879 46.417H60.7616C57.2503 46.5305 54.5323 49.4809 54.6456 52.9987C54.759 54.701 55.4383 56.1762 56.4576 57.1975C52.607 64.8009 46.7177 70.3614 37.8838 75.0141C31.8811 78.1916 25.6522 79.3264 19.4232 78.5322C14.3266 77.8512 10.3626 75.5819 7.87059 71.8366C4.24662 66.2761 3.90696 60.2615 6.96494 54.2471C9.11693 49.9348 12.5142 46.7573 14.6662 45.1685C14.2132 43.6933 13.5336 41.1968 13.1939 39.3813C-3.22834 51.2968 -1.52934 67.411 3.45396 75.0141C7.19127 80.6884 14.7796 84.2062 23.1605 84.2062C25.4255 84.2062 27.6905 83.9791 29.9558 83.412C44.4527 80.5749 55.4386 71.9501 61.6676 59.1269ZM81.6008 45.0553C72.9932 34.9554 60.3086 29.395 45.8117 29.395H43.9997C42.9804 27.3523 40.8284 25.9903 38.4501 25.9903H38.2234C34.7128 26.1039 31.9948 29.0543 32.1078 32.5725C32.2211 35.9767 35.0524 38.7003 38.4501 38.7003H38.6764C41.1681 38.5868 43.32 36.998 44.226 34.8418H46.2647C54.8723 34.8418 63.0266 37.3383 70.3886 42.2182C76.0512 45.9631 80.1285 50.8429 82.3935 56.7436C84.3188 61.5099 84.2055 66.1626 82.1668 70.1346C78.9958 76.1489 73.6729 79.44 66.6509 79.44C62.1206 79.44 57.817 78.078 55.5516 77.0567C54.306 78.1916 52.0407 80.0071 50.455 81.1423C55.3253 83.4117 60.3086 84.6601 65.0653 84.6601C75.9379 84.6601 83.9791 78.6454 87.0371 72.6311C90.3214 66.049 90.0948 54.701 81.6008 45.0553ZM24.0665 61.0557C24.1798 64.4603 27.0111 67.1835 30.4088 67.1835H30.6355C34.1464 67.0703 36.8644 64.1196 36.7511 60.6018C36.6381 57.1972 33.8064 54.4739 30.4088 54.4739H30.1825C29.9558 54.4739 29.6158 54.4739 29.3898 54.5871C24.7462 46.8705 22.8208 38.4732 23.5005 29.3946C23.9532 22.5857 26.2185 16.6846 30.1825 11.8048C33.4668 7.60602 39.8091 5.56339 44.1131 5.45018C56.118 5.22307 61.2143 20.2024 61.5543 26.2171C63.0266 26.5574 65.5182 27.352 67.2172 27.9194C65.8579 9.53578 54.5323 0.0032959 43.6601 0.0032959C33.4668 0.0032959 24.0665 7.3796 20.3288 18.2737C15.1192 32.7992 18.5169 46.7573 24.8592 57.765C24.2932 58.5592 23.9532 59.8072 24.0665 61.0557Z" fill="#764ABC"/>
</g>
<defs>
<clipPath id="clip0_164_172">
<rect width="89" height="85" fill="white"/>
</clipPath>
</defs>
</svg>
