<svg width="85" height="85" viewBox="0 0 85 85" fill="none" xmlns="http://www.w3.org/2000/svg">
<path d="M19.421 37.49L16.121 37.76C15.551 35.09 13.571 33.77 10.871 33.77C8.14102 33.77 6.43102 35.18 6.43102 37.1C6.43102 38.93 7.93102 39.56 9.85102 40.01L13.541 40.85C16.811 41.66 19.931 42.53 19.931 47.21C19.931 51.38 16.181 53.48 11.621 53.48C6.40102 53.48 3.10102 51.02 2.35102 46.43L5.62102 46.1C6.07102 49.67 8.71102 50.84 11.681 50.84C14.561 50.84 16.571 49.49 16.571 47.3C16.571 45.02 14.891 44.45 12.611 43.91L8.71102 42.95C5.92102 42.26 3.07102 41.15 3.07102 37.19C3.07102 33.5 6.46102 31.13 10.901 31.13C15.611 31.13 18.371 33.47 19.421 37.49ZM38.6892 45.56L41.9892 46.07C41.2392 49.55 38.2392 53.48 32.6592 53.48C26.6892 53.48 22.5792 49.22 22.5792 42.26C22.5792 35.39 26.6892 31.13 32.6592 31.13C37.6392 31.13 40.6092 34.37 41.5992 37.07L38.3892 37.79C37.5792 35.69 35.6292 33.89 32.6592 33.89C28.5192 33.89 25.9392 37.01 25.9392 42.26C25.9392 47.6 28.5192 50.72 32.6592 50.72C36.2292 50.72 38.0592 48.23 38.6892 45.56ZM61.0226 37.49L57.7226 37.76C57.1526 35.09 55.1726 33.77 52.4726 33.77C49.7426 33.77 48.0326 35.18 48.0326 37.1C48.0326 38.93 49.5326 39.56 51.4526 40.01L55.1426 40.85C58.4126 41.66 61.5326 42.53 61.5326 47.21C61.5326 51.38 57.7826 53.48 53.2226 53.48C48.0026 53.48 44.7026 51.02 43.9526 46.43L47.2226 46.1C47.6726 49.67 50.3126 50.84 53.2826 50.84C56.1626 50.84 58.1726 49.49 58.1726 47.3C58.1726 45.02 56.4926 44.45 54.2126 43.91L50.3126 42.95C47.5226 42.26 44.6726 41.15 44.6726 37.19C44.6726 33.5 48.0626 31.13 52.5026 31.13C57.2126 31.13 59.9726 33.47 61.0226 37.49ZM80.6808 37.49L77.3808 37.76C76.8108 35.09 74.8308 33.77 72.1308 33.77C69.4008 33.77 67.6908 35.18 67.6908 37.1C67.6908 38.93 69.1908 39.56 71.1108 40.01L74.8008 40.85C78.0708 41.66 81.1908 42.53 81.1908 47.21C81.1908 51.38 77.4408 53.48 72.8808 53.48C67.6608 53.48 64.3608 51.02 63.6108 46.43L66.8808 46.1C67.3308 49.67 69.9708 50.84 72.9408 50.84C75.8208 50.84 77.8308 49.49 77.8308 47.3C77.8308 45.02 76.1508 44.45 73.8708 43.91L69.9708 42.95C67.1808 42.26 64.3308 41.15 64.3308 37.19C64.3308 33.5 67.7208 31.13 72.1608 31.13C76.8708 31.13 79.6308 33.47 80.6808 37.49Z" fill="#F4F4F4"/>
</svg>
