<svg width="85" height="85" viewBox="0 0 85 85" fill="none" xmlns="http://www.w3.org/2000/svg">
<g clip-path="url(#clip0_98_9)">
<path d="M42.5 16.0691C31.1668 16.0691 24.0832 21.8316 21.25 33.3563C25.5 27.5938 30.4582 25.4329 36.125 26.8736C39.358 27.6954 41.6689 30.0809 44.2269 32.7209C48.3939 37.0221 53.2163 41.9999 63.75 41.9999C75.0832 41.9999 82.1668 36.2374 85 24.7127C80.75 30.4752 75.7918 32.6361 70.125 31.1954C66.892 30.3736 64.5811 27.9882 62.0231 25.3481C57.8561 21.0469 53.0337 16.0691 42.5 16.0691ZM21.25 41.9999C9.91678 41.9999 2.83322 47.7625 0 59.2872C4.25 53.5247 9.20822 51.3637 14.875 52.8045C18.108 53.6263 20.4189 56.0117 22.9769 58.6517C27.1439 62.9529 31.9663 67.9308 42.5 67.9308C53.8332 67.9308 60.9168 62.1683 63.75 50.6436C59.5 56.4061 54.5418 58.567 48.875 57.1263C45.642 56.3045 43.3311 53.919 40.7731 51.279C36.6061 46.9778 31.7837 41.9999 21.25 41.9999Z" fill="url(#paint0_linear_98_9)"/>
</g>
<defs>
<linearGradient id="paint0_linear_98_9" x1="-604.493" y1="2565.18" x2="-344.291" y2="5436.45" gradientUnits="userSpaceOnUse">
<stop stop-color="#2298BD"/>
<stop offset="1" stop-color="#0ED7B5"/>
</linearGradient>
<clipPath id="clip0_98_9">
<rect width="85" height="52" fill="white" transform="translate(0 16)"/>
</clipPath>
</defs>
</svg>
