<svg width="70" height="70" viewBox="0 0 70 70" fill="none" xmlns="http://www.w3.org/2000/svg">
<path d="M22.7499 5.8335H47.2499C56.5832 5.8335 64.1666 13.4168 64.1666 22.7502V47.2502C64.1666 51.7367 62.3843 56.0396 59.2118 59.212C56.0393 62.3845 51.7365 64.1668 47.2499 64.1668H22.7499C13.4166 64.1668 5.83325 56.5835 5.83325 47.2502V22.7502C5.83325 18.2636 7.61554 13.9608 10.788 10.7883C13.9605 7.61578 18.2633 5.8335 22.7499 5.8335ZM22.1666 11.6668C19.3818 11.6668 16.7111 12.7731 14.742 14.7422C12.7728 16.7113 11.6666 19.3821 11.6666 22.1668V47.8335C11.6666 53.6377 16.3624 58.3335 22.1666 58.3335H47.8332C50.618 58.3335 53.2887 57.2272 55.2579 55.2581C57.227 53.289 58.3332 50.6183 58.3332 47.8335V22.1668C58.3332 16.3627 53.6374 11.6668 47.8332 11.6668H22.1666ZM50.3124 16.0418C51.2793 16.0418 52.2067 16.4259 52.8904 17.1097C53.5741 17.7934 53.9582 18.7207 53.9582 19.6877C53.9582 20.6546 53.5741 21.5819 52.8904 22.2657C52.2067 22.9494 51.2793 23.3335 50.3124 23.3335C49.3455 23.3335 48.4181 22.9494 47.7344 22.2657C47.0507 21.5819 46.6666 20.6546 46.6666 19.6877C46.6666 18.7207 47.0507 17.7934 47.7344 17.1097C48.4181 16.4259 49.3455 16.0418 50.3124 16.0418ZM34.9999 20.4168C38.8677 20.4168 42.577 21.9533 45.3119 24.6882C48.0468 27.4231 49.5832 31.1324 49.5832 35.0002C49.5832 38.8679 48.0468 42.5772 45.3119 45.3121C42.577 48.047 38.8677 49.5835 34.9999 49.5835C31.1322 49.5835 27.4228 48.047 24.6879 45.3121C21.953 42.5772 20.4166 38.8679 20.4166 35.0002C20.4166 31.1324 21.953 27.4231 24.6879 24.6882C27.4228 21.9533 31.1322 20.4168 34.9999 20.4168ZM34.9999 26.2502C32.6793 26.2502 30.4537 27.172 28.8127 28.813C27.1718 30.4539 26.2499 32.6795 26.2499 35.0002C26.2499 37.3208 27.1718 39.5464 28.8127 41.1873C30.4537 42.8283 32.6793 43.7502 34.9999 43.7502C37.3206 43.7502 39.5462 42.8283 41.1871 41.1873C42.828 39.5464 43.7499 37.3208 43.7499 35.0002C43.7499 32.6795 42.828 30.4539 41.1871 28.813C39.5462 27.172 37.3206 26.2502 34.9999 26.2502Z" fill="#202020"/>
</svg>
