<svg width="38" height="38" viewBox="0 0 38 38" fill="none" xmlns="http://www.w3.org/2000/svg">
<path d="M12.35 3.16666H25.65C30.7166 3.16666 34.8333 7.28333 34.8333 12.35V25.65C34.8333 28.0856 33.8658 30.4214 32.1436 32.1436C30.4213 33.8658 28.0855 34.8333 25.65 34.8333H12.35C7.28329 34.8333 3.16663 30.7167 3.16663 25.65V12.35C3.16663 9.91443 4.13415 7.57861 5.85636 5.8564C7.57857 4.13419 9.91439 3.16666 12.35 3.16666ZM12.0333 6.33333C10.5216 6.33333 9.07174 6.93386 8.00278 8.00282C6.93383 9.07178 6.33329 10.5216 6.33329 12.0333V25.9667C6.33329 29.1175 8.88246 31.6667 12.0333 31.6667H25.9666C27.4784 31.6667 28.9282 31.0661 29.9971 29.9972C31.0661 28.9282 31.6666 27.4784 31.6666 25.9667V12.0333C31.6666 8.8825 29.1175 6.33333 25.9666 6.33333H12.0333ZM27.3125 8.70833C27.8374 8.70833 28.3408 8.91685 28.7119 9.28801C29.0831 9.65918 29.2916 10.1626 29.2916 10.6875C29.2916 11.2124 29.0831 11.7158 28.7119 12.087C28.3408 12.4581 27.8374 12.6667 27.3125 12.6667C26.7875 12.6667 26.2841 12.4581 25.913 12.087C25.5418 11.7158 25.3333 11.2124 25.3333 10.6875C25.3333 10.1626 25.5418 9.65918 25.913 9.28801C26.2841 8.91685 26.7875 8.70833 27.3125 8.70833ZM19 11.0833C21.0996 11.0833 23.1132 11.9174 24.5979 13.4021C26.0826 14.8867 26.9166 16.9004 26.9166 19C26.9166 21.0996 26.0826 23.1133 24.5979 24.5979C23.1132 26.0826 21.0996 26.9167 19 26.9167C16.9003 26.9167 14.8867 26.0826 13.402 24.5979C11.9174 23.1133 11.0833 21.0996 11.0833 19C11.0833 16.9004 11.9174 14.8867 13.402 13.4021C14.8867 11.9174 16.9003 11.0833 19 11.0833ZM19 14.25C17.7402 14.25 16.532 14.7504 15.6412 15.6412C14.7504 16.532 14.25 17.7402 14.25 19C14.25 20.2598 14.7504 21.468 15.6412 22.3588C16.532 23.2496 17.7402 23.75 19 23.75C20.2597 23.75 21.4679 23.2496 22.3587 22.3588C23.2495 21.468 23.75 20.2598 23.75 19C23.75 17.7402 23.2495 16.532 22.3587 15.6412C21.4679 14.7504 20.2597 14.25 19 14.25Z" fill="#F4F4F4"/>
</svg>
