<svg width="37" height="38" viewBox="0 0 37 38" fill="none" xmlns="http://www.w3.org/2000/svg">
<path d="M29.2917 4.75C30.1094 4.75 30.8937 5.08363 31.4719 5.6775C32.0501 6.27136 32.375 7.07681 32.375 7.91667V30.0833C32.375 30.9232 32.0501 31.7286 31.4719 32.3225C30.8937 32.9164 30.1094 33.25 29.2917 33.25H7.70833C6.89058 33.25 6.10632 32.9164 5.52809 32.3225C4.94985 31.7286 4.625 30.9232 4.625 30.0833V7.91667C4.625 7.07681 4.94985 6.27136 5.52809 5.6775C6.10632 5.08363 6.89058 4.75 7.70833 4.75H29.2917ZM28.5208 29.2917V20.9C28.5208 19.531 27.9913 18.2182 27.0488 17.2502C26.1063 16.2822 24.8279 15.7383 23.495 15.7383C22.1846 15.7383 20.6583 16.5617 19.9183 17.7967V16.0392H15.6171V29.2917H19.9183V21.4858C19.9183 20.2667 20.8742 19.2692 22.0613 19.2692C22.6337 19.2692 23.1827 19.5027 23.5874 19.9184C23.9922 20.3341 24.2196 20.8979 24.2196 21.4858V29.2917H28.5208ZM10.6067 13.5533C11.2936 13.5533 11.9524 13.2731 12.4381 12.7742C12.9238 12.2754 13.1967 11.5988 13.1967 10.8933C13.1967 9.42083 12.0404 8.2175 10.6067 8.2175C9.91567 8.2175 9.25297 8.49942 8.76436 9.00123C8.27575 9.50305 8.00125 10.1837 8.00125 10.8933C8.00125 12.3658 9.17292 13.5533 10.6067 13.5533ZM12.7496 29.2917V16.0392H8.47917V29.2917H12.7496Z" fill="#F4F4F4"/>
</svg>
