<svg width="25" height="25" viewBox="0 0 25 25" fill="none" xmlns="http://www.w3.org/2000/svg">
<path fill-rule="evenodd" clip-rule="evenodd" d="M12.5 0C12.8315 0 13.1495 0.131696 13.3839 0.366116C13.6183 0.600537 13.75 0.918479 13.75 1.25V2.5C13.75 2.83152 13.6183 3.14946 13.3839 3.38388C13.1495 3.6183 12.8315 3.75 12.5 3.75C12.1685 3.75 11.8505 3.6183 11.6161 3.38388C11.3817 3.14946 11.25 2.83152 11.25 2.5V1.25C11.25 0.918479 11.3817 0.600537 11.6161 0.366116C11.8505 0.131696 12.1685 0 12.5 0ZM0 12.5C0 12.1685 0.131696 11.8505 0.366116 11.6161C0.600537 11.3817 0.918479 11.25 1.25 11.25H2.5C2.83152 11.25 3.14946 11.3817 3.38388 11.6161C3.6183 11.8505 3.75 12.1685 3.75 12.5C3.75 12.8315 3.6183 13.1495 3.38388 13.3839C3.14946 13.6183 2.83152 13.75 2.5 13.75H1.25C0.918479 13.75 0.600537 13.6183 0.366116 13.3839C0.131696 13.1495 0 12.8315 0 12.5ZM21.25 12.5C21.25 12.1685 21.3817 11.8505 21.6161 11.6161C21.8505 11.3817 22.1685 11.25 22.5 11.25H23.75C24.0815 11.25 24.3995 11.3817 24.6339 11.6161C24.8683 11.8505 25 12.1685 25 12.5C25 12.8315 24.8683 13.1495 24.6339 13.3839C24.3995 13.6183 24.0815 13.75 23.75 13.75H22.5C22.1685 13.75 21.8505 13.6183 21.6161 13.3839C21.3817 13.1495 21.25 12.8315 21.25 12.5ZM13.75 22.5C13.75 22.1685 13.6183 21.8505 13.3839 21.6161C13.1495 21.3817 12.8315 21.25 12.5 21.25C12.1685 21.25 11.8505 21.3817 11.6161 21.6161C11.3817 21.8505 11.25 22.1685 11.25 22.5V23.75C11.25 24.0815 11.3817 24.3995 11.6161 24.6339C11.8505 24.8683 12.1685 25 12.5 25C12.8315 25 13.1495 24.8683 13.3839 24.6339C13.6183 24.3995 13.75 24.0815 13.75 23.75V22.5ZM20.455 18.6875C20.3397 18.5681 20.2018 18.4729 20.0493 18.4074C19.8967 18.3419 19.7327 18.3074 19.5667 18.3059C19.4008 18.3045 19.2362 18.3361 19.0826 18.399C18.9289 18.4618 18.7894 18.5546 18.672 18.672C18.5546 18.7894 18.4618 18.9289 18.399 19.0826C18.3361 19.2362 18.3045 19.4008 18.3059 19.5667C18.3074 19.7327 18.3419 19.8967 18.4074 20.0493C18.4729 20.2018 18.5681 20.3397 18.6875 20.455L19.5712 21.3387C19.807 21.5664 20.1228 21.6924 20.4505 21.6896C20.7782 21.6867 21.0918 21.5553 21.3235 21.3235C21.5553 21.0918 21.6867 20.7782 21.6896 20.4505C21.6924 20.1228 21.5664 19.807 21.3387 19.5712L20.455 18.6875ZM3.66125 3.66125C3.89566 3.42691 4.21354 3.29527 4.545 3.29527C4.87646 3.29527 5.19434 3.42691 5.42875 3.66125L6.3125 4.545C6.5402 4.78075 6.66619 5.09651 6.66334 5.42425C6.66049 5.752 6.52903 6.06551 6.29727 6.29727C6.06551 6.52903 5.752 6.66049 5.42425 6.66334C5.09651 6.66619 4.78075 6.5402 4.545 6.3125L3.66125 5.42875C3.42691 5.19434 3.29527 4.87646 3.29527 4.545C3.29527 4.21354 3.42691 3.89566 3.66125 3.66125ZM6.3125 20.455C6.43189 20.3397 6.52712 20.2018 6.59263 20.0493C6.65814 19.8967 6.69262 19.7327 6.69406 19.5667C6.69551 19.4008 6.66388 19.2362 6.60103 19.0826C6.53818 18.9289 6.44536 18.7894 6.32799 18.672C6.21063 18.5546 6.07106 18.4618 5.91744 18.399C5.76382 18.3361 5.59922 18.3045 5.43325 18.3059C5.26727 18.3074 5.10325 18.3419 4.95074 18.4074C4.79824 18.4729 4.66031 18.5681 4.545 18.6875L3.66125 19.5712C3.54186 19.6866 3.44663 19.8245 3.38112 19.977C3.31561 20.1295 3.28113 20.2935 3.27969 20.4595C3.27824 20.6255 3.30987 20.7901 3.37272 20.9437C3.43557 21.0973 3.52839 21.2369 3.64576 21.3542C3.76312 21.4716 3.90269 21.5644 4.05631 21.6273C4.20993 21.6901 4.37453 21.7218 4.5405 21.7203C4.70648 21.7189 4.8705 21.6844 5.02301 21.6189C5.17551 21.5534 5.31344 21.4581 5.42875 21.3387L6.3125 20.455ZM21.3387 3.66125C21.5731 3.89566 21.7047 4.21354 21.7047 4.545C21.7047 4.87646 21.5731 5.19434 21.3387 5.42875L20.455 6.3125C20.3397 6.43189 20.2018 6.52712 20.0493 6.59263C19.8967 6.65814 19.7327 6.69262 19.5667 6.69406C19.4008 6.69551 19.2362 6.66388 19.0826 6.60103C18.9289 6.53818 18.7894 6.44536 18.672 6.32799C18.5546 6.21063 18.4618 6.07106 18.399 5.91744C18.3361 5.76382 18.3045 5.59922 18.3059 5.43325C18.3074 5.26727 18.3419 5.10325 18.4074 4.95074C18.4729 4.79824 18.5681 4.66031 18.6875 4.545L19.5712 3.66125C19.8057 3.42691 20.1235 3.29527 20.455 3.29527C20.7865 3.29527 21.1043 3.42691 21.3387 3.66125ZM6.25 12.5C6.25 10.8424 6.90848 9.25268 8.08058 8.08058C9.25268 6.90848 10.8424 6.25 12.5 6.25C14.1576 6.25 15.7473 6.90848 16.9194 8.08058C18.0915 9.25268 18.75 10.8424 18.75 12.5C18.75 14.1576 18.0915 15.7473 16.9194 16.9194C15.7473 18.0915 14.1576 18.75 12.5 18.75C10.8424 18.75 9.25268 18.0915 8.08058 16.9194C6.90848 15.7473 6.25 14.1576 6.25 12.5Z" fill="#F4F4F4"/>
</svg>
