<svg width="70" height="70" viewBox="0 0 70 70" fill="none" xmlns="http://www.w3.org/2000/svg">
<path d="M34.9999 5.8335C18.8999 5.8335 5.83325 18.9002 5.83325 35.0002C5.83325 51.1002 18.8999 64.1668 34.9999 64.1668C51.0999 64.1668 64.1666 51.1002 64.1666 35.0002C64.1666 18.9002 51.0999 5.8335 34.9999 5.8335ZM48.5332 25.6668C48.0957 30.2752 46.1999 41.4752 45.2374 46.6377C44.8291 48.8252 44.0124 49.5543 43.2541 49.6418C41.5624 49.7877 40.2791 48.5335 38.6457 47.4543C36.0791 45.7627 34.6207 44.7127 32.1416 43.0793C29.2541 41.1835 31.1207 40.1335 32.7832 38.4418C33.2207 38.0043 40.6874 31.2085 40.8332 30.596C40.8535 30.5032 40.8508 30.4069 40.8254 30.3154C40.8 30.2239 40.7526 30.14 40.6874 30.071C40.5124 29.9252 40.2791 29.9835 40.0749 30.0127C39.8124 30.071 35.7291 32.7835 27.7666 38.1502C26.5999 38.9377 25.5499 39.346 24.6166 39.3168C23.5666 39.2877 21.5832 38.7335 20.0957 38.2377C18.2583 37.6543 16.8291 37.3335 16.9458 36.3127C17.0041 35.7877 17.7333 35.2627 19.1041 34.7085C27.6208 31.0043 33.2791 28.5543 36.1082 27.3877C44.2166 24.0043 45.8791 23.421 46.9874 23.421C47.2207 23.421 47.7749 23.4793 48.1249 23.771C48.4166 24.0043 48.5041 24.3252 48.5332 24.5585C48.5041 24.7335 48.5624 25.2585 48.5332 25.6668Z" fill="#202020"/>
</svg>
