<svg width="38" height="38" viewBox="0 0 38 38" fill="none" xmlns="http://www.w3.org/2000/svg">
<path d="M19 3.16666C10.26 3.16666 3.16663 10.26 3.16663 19C3.16663 27.74 10.26 34.8333 19 34.8333C27.74 34.8333 34.8333 27.74 34.8333 19C34.8333 10.26 27.74 3.16666 19 3.16666ZM26.3466 13.9333C26.1091 16.435 25.08 22.515 24.5575 25.3175C24.3358 26.505 23.8925 26.9008 23.4808 26.9483C22.5625 27.0275 21.8658 26.3467 20.9791 25.7608C19.5858 24.8425 18.7941 24.2725 17.4483 23.3858C15.8808 22.3567 16.8941 21.7867 17.7966 20.8683C18.0341 20.6308 22.0875 16.9417 22.1666 16.6092C22.1776 16.5588 22.1762 16.5065 22.1624 16.4569C22.1486 16.4072 22.1229 16.3616 22.0875 16.3242C21.9925 16.245 21.8658 16.2767 21.755 16.2925C21.6125 16.3242 19.3958 17.7967 15.0733 20.71C14.44 21.1375 13.87 21.3592 13.3633 21.3433C12.7933 21.3275 11.7166 21.0267 10.9091 20.7575C9.91163 20.4408 9.13579 20.2667 9.19913 19.7125C9.23079 19.4275 9.62663 19.1425 10.3708 18.8417C14.9941 16.8308 18.0658 15.5008 19.6016 14.8675C24.0033 13.0308 24.9058 12.7142 25.5075 12.7142C25.6341 12.7142 25.935 12.7458 26.125 12.9042C26.2833 13.0308 26.3308 13.205 26.3466 13.3317C26.3308 13.4267 26.3625 13.7117 26.3466 13.9333Z" fill="#F4F4F4"/>
</svg>
