<svg width="61" height="30" viewBox="0 0 61 272" fill="transparent" xmlns="http://www.w3.org/2000/svg">
<g filter="url(#filter0_b_50_148)">
<path d="M0 0.5H45.5C54.0604 0.5 61 7.43959 61 16H59C59 7.99187 52.732 1.5 45 1.5H0V0.5ZM61 256C61 264.56 54.0604 271.5 45.5 271.5H0V270.5H45C52.732 270.5 59 264.008 59 256H61ZM0 271V1V271ZM45.5 0.5C54.0604 0.5 61 7.43959 61 16V256C61 264.56 54.0604 271.5 45.5 271.5L45 270.5C52.732 270.5 59 264.008 59 256V16C59 7.99187 52.732 1.5 45 1.5L45.5 0.5Z" fill="url(#paint0_linear_50_148)"/>
</g>
<defs>
<filter id="filter0_b_50_148" x="-8.8" y="-8.3" width="78.6" height="288.6" filterUnits="userSpaceOnUse" color-interpolation-filters="sRGB">
<feFlood flood-opacity="0" result="BackgroundImageFix"/>
<feGaussianBlur in="BackgroundImageFix" stdDeviation="4.4"/>
<feComposite in2="SourceAlpha" operator="in" result="effect1_backgroundBlur_50_148"/>
<feBlend mode="normal" in="SourceGraphic" in2="effect1_backgroundBlur_50_148" result="shape"/>
</filter>
<linearGradient id="paint0_linear_50_148" x1="-1.42881e-07" y1="80.1827" x2="81.7878" y2="89.2307" gradientUnits="userSpaceOnUse">
<stop stop-color="#283C86"/>
<stop offset="0.850149" stop-color="#45A247"/>
</linearGradient>
</defs>
</svg>
