<svg width="61" height="302" viewBox="0 0 61 302" fill="none" xmlns="http://www.w3.org/2000/svg">
<g filter="url(#filter0_b_50_148)">
<path d="M0 0.5H45.5C54.0604 0.5 61 7.43959 61 16H59C59 7.99187 52.732 1.5 45 1.5H0V0.5ZM61 286C61 294.56 54.0604 301.5 45.5 301.5H0V300.5H45C52.732 300.5 59 294.008 59 286H61ZM0 301V1V301ZM45.5 0.5C54.0604 0.5 61 7.43959 61 16V286C61 294.56 54.0604 301.5 45.5 301.5L45 300.5C52.732 300.5 59 294.008 59 286V16C59 7.99187 52.732 1.5 45 1.5L45.5 0.5Z" fill="url(#paint0_linear_50_148)"/>
</g>
<defs>
<filter id="filter0_b_50_148" x="-8.8" y="-8.3" width="78.6" height="318.6" filterUnits="userSpaceOnUse" color-interpolation-filters="sRGB">
<feFlood flood-opacity="0" result="BackgroundImageFix"/>
<feGaussianBlur in="BackgroundImageFix" stdDeviation="4.4"/>
<feComposite in2="SourceAlpha" operator="in" result="effect1_backgroundBlur_50_148"/>
<feBlend mode="normal" in="SourceGraphic" in2="effect1_backgroundBlur_50_148" result="shape"/>
</filter>
<linearGradient id="paint0_linear_50_148" x1="-1.42881e-07" y1="88.9808" x2="81.9761" y2="97.1427" gradientUnits="userSpaceOnUse">
<stop stop-color="#283C86"/>
<stop offset="0.850149" stop-color="#45A247"/>
</linearGradient>
</defs>
</svg>
