<svg width="44" height="44" viewBox="0 0 44 44" fill="none" xmlns="http://www.w3.org/2000/svg">
<path d="M18.3333 27.5L27.8483 22L18.3333 16.5V27.5ZM39.5266 13.145C39.765 14.0067 39.93 15.1617 40.04 16.6283C40.1683 18.095 40.2233 19.36 40.2233 20.46L40.3333 22C40.3333 26.015 40.04 28.9667 39.5266 30.855C39.0683 32.505 38.005 33.5683 36.355 34.0267C35.4933 34.265 33.9166 34.43 31.4966 34.54C29.1133 34.6683 26.9316 34.7233 24.915 34.7233L22 34.8333C14.3183 34.8333 9.53329 34.54 7.64496 34.0267C5.99496 33.5683 4.93163 32.505 4.47329 30.855C4.23496 29.9933 4.06996 28.8383 3.95996 27.3717C3.83163 25.905 3.77663 24.64 3.77663 23.54L3.66663 22C3.66663 17.985 3.95996 15.0333 4.47329 13.145C4.93163 11.495 5.99496 10.4317 7.64496 9.97333C8.50663 9.735 10.0833 9.57 12.5033 9.46C14.8866 9.33166 17.0683 9.27666 19.085 9.27666L22 9.16666C29.6816 9.16666 34.4666 9.46 36.355 9.97333C38.005 10.4317 39.0683 11.495 39.5266 13.145Z" fill="white"/>
</svg>
