<svg width="70" height="70" viewBox="0 0 70 70" fill="none" xmlns="http://www.w3.org/2000/svg">
<path fill-rule="evenodd" clip-rule="evenodd" d="M30.2925 24.3745C29.9605 24.1752 29.5817 24.0676 29.1946 24.0627C28.8075 24.0577 28.426 24.1556 28.0891 24.3463C27.7522 24.537 27.4719 24.8137 27.2769 25.1481C27.0819 25.4825 26.9791 25.8627 26.9791 26.2499V43.7499C26.9791 44.137 27.0819 44.5172 27.2769 44.8516C27.4719 45.1861 27.7522 45.4628 28.0891 45.6534C28.426 45.8441 28.8075 45.942 29.1946 45.9371C29.5817 45.9321 29.9605 45.8245 30.2925 45.6253L44.8758 36.8753C45.1995 36.6809 45.4675 36.406 45.6535 36.0774C45.8395 35.7487 45.9372 35.3775 45.9372 34.9999C45.9372 34.6222 45.8395 34.251 45.6535 33.9224C45.4675 33.5937 45.1995 33.3189 44.8758 33.1245L30.2925 24.3745ZM39.4975 34.9999L31.3541 39.8853V30.1145L39.4975 34.9999Z" fill="#202020"/>
<path fill-rule="evenodd" clip-rule="evenodd" d="M49.6708 13.5363C39.9052 12.7724 30.0948 12.7724 20.3291 13.5363L13.7929 14.0496C11.8616 14.2002 10.0362 14.9927 8.60744 16.3009C7.17872 17.6091 6.22885 19.3578 5.90913 21.2684C4.38999 30.3598 4.38999 39.6403 5.90913 48.7317C6.22885 50.6423 7.17872 52.391 8.60744 53.6992C10.0362 55.0074 11.8616 55.7999 13.7929 55.9505L20.3262 56.4638C30.0941 57.228 39.9058 57.228 49.6737 56.4638L56.2071 55.9505C58.1384 55.7999 59.9638 55.0074 61.3925 53.6992C62.8212 52.391 63.7711 50.6423 64.0908 48.7317C65.6075 39.6405 65.6075 30.3596 64.0908 21.2684C63.7711 19.3578 62.8212 17.6091 61.3925 16.3009C59.9638 14.9927 58.1384 14.2002 56.2071 14.0496L49.6708 13.5363ZM20.6704 17.8996C30.2108 17.1532 39.795 17.1532 49.3354 17.8996L55.8687 18.4101C57.8404 18.5646 59.4533 20.0434 59.7771 21.9917C61.2159 30.6043 61.2159 39.3958 59.7771 48.0084C59.6191 48.9561 59.1484 49.8236 58.4401 50.4727C57.7318 51.1219 56.8266 51.5152 55.8687 51.5901L49.3354 52.1005C39.795 52.8471 30.2108 52.8471 20.6704 52.1005L14.137 51.5901C13.1792 51.5152 12.274 51.1219 11.5657 50.4727C10.8573 49.8236 10.3867 48.9561 10.2287 48.0084C8.78985 39.3958 8.78985 30.6043 10.2287 21.9917C10.3867 21.044 10.8573 20.1765 11.5657 19.5274C12.274 18.8783 13.1792 18.4849 14.137 18.4101L20.6704 17.8996Z" fill="#202020"/>
</svg>
